<svg width="150" height="150" viewBox="0 0 150 150" fill="none" xmlns="http://www.w3.org/2000/svg">
<circle cx="75" cy="75" r="75" fill="white"/>
<path fill-rule="evenodd" clip-rule="evenodd" d="M45.5196 45.7789C48.4377 48.0532 49.5323 47.8796 55.012 47.5289L106.671 44.5533C107.767 44.5533 106.856 43.5048 106.49 43.3305L97.9108 37.3808C96.2668 36.1564 94.0767 34.7543 89.8791 35.1051L39.8575 38.6049C38.0332 38.7784 37.6689 39.6535 38.3954 40.3548L45.5196 45.7789ZM48.6211 57.3279V109.469C48.6211 112.271 50.0809 113.32 53.3664 113.146L110.14 109.995C113.427 109.822 113.793 107.894 113.793 105.618V53.8264C113.793 51.5537 112.882 50.3281 110.869 50.5031L51.5408 53.8264C49.3513 54.0029 48.6209 55.0536 48.6209 57.3279H48.6211ZM104.668 60.1248C105.032 61.7011 104.668 63.276 103.021 63.4533L100.286 63.9761V102.47C97.9108 103.695 95.7207 104.395 93.8957 104.395C90.9737 104.395 90.2419 103.519 88.0533 100.896L70.1603 73.95V100.021L75.8224 101.247C75.8224 101.247 75.8224 104.395 71.2542 104.395L58.661 105.096C58.2952 104.395 58.661 102.647 59.9384 102.296L63.2247 101.423V66.9515L58.6619 66.6008C58.2959 65.0245 59.2073 62.7516 61.7649 62.5753L75.2746 61.7017L93.8957 88.9985V64.851L89.148 64.3283C88.7836 62.4012 90.2419 61.0019 92.0677 60.8284L104.668 60.1248ZM35.6576 33.8809L87.688 30.2052C94.0775 29.6796 95.7214 30.0317 99.7373 32.8301L116.346 44.0283C119.087 45.954 120 46.4782 120 48.5774V109.995C120 113.844 118.538 116.121 113.428 116.469L53.0048 119.969C49.1686 120.145 47.3428 119.62 45.3337 117.169L33.1028 101.946C30.9114 99.1438 30 97.0475 30 94.5949V40.0028C30 36.8551 31.4622 34.2294 35.6576 33.8809V33.8809Z" fill="black"/>
</svg>
