<svg width="205" height="103" viewBox="0 0 205 103" fill="none" xmlns="http://www.w3.org/2000/svg">
<path d="M182.776 14.1792C155.871 6.40258 128.751 3.56457 101.033 3.22108C76.2028 2.91338 42.2933 -2.81398 20 13.5028C8.76766 21.7239 -0.505837 42.6746 2.61045 58.0118C4.72562 68.4219 10.1822 77.1636 18.403 82.3633C38.334 94.9697 64.6762 97.3144 86.8966 99.4093C111.507 101.729 138.718 102.663 162.488 93.9302C172.418 90.2822 181.835 84.699 190.465 78.0341C194.376 75.0133 200.482 70.5784 202.295 65.1143C205.786 54.5867 195.497 39.731 189.341 33.2545C180.432 23.8806 170.02 19.3227 158.288 17.8319" stroke="#3DD7AC" stroke-width="3" stroke-linecap="round" stroke-linejoin="round"/>
</svg>
