<svg width="71" height="52" viewBox="0 0 71 52" fill="none" xmlns="http://www.w3.org/2000/svg">
<path d="M16.6219 0.00101851C7.83663 -0.0522177 0 7.33087 0 16.6229C0 25.7986 7.44553 33.2447 16.6219 33.2447C17.0923 33.2447 17.5628 33.2095 18.024 33.1736C13.9063 38.1877 7.66766 41.391 0.701656 41.391V51.3659C18.5659 51.3659 33.0928 36.7768 33.0928 18.8416C34.043 8.70698 26.0831 0.0629449 16.6231 0.00114183L16.6219 0.00101851Z" fill="#3DD7AC"/>
<path d="M38.5319 41.3901V51.365C56.3961 51.365 70.923 36.776 70.923 18.8407C71.8726 8.70612 63.9033 0.0541657 54.4517 0.000286066C45.666 -0.0529502 37.8298 7.33077 37.8298 16.6222C37.8298 25.7979 45.2754 33.244 54.4517 33.244C54.9222 33.244 55.3926 33.2087 55.8538 33.1728C51.728 38.1863 45.4889 41.3903 38.5315 41.3903L38.5319 41.3901Z" fill="#3DD7AC"/>
</svg>
