<svg fill="none" height="79" viewBox="0 0 79 79" width="79" xmlns="http://www.w3.org/2000/svg"><path d="m39.5-.00024414c-10.4762 0-20.5229 4.16157414-27.9305 11.56944414-7.40792 7.4073-11.5695 17.4547-11.5695 27.9306 0 10.4758 4.16158 20.5229 11.5695 27.9305 7.4073 7.4079 17.4546 11.5695 27.9305 11.5695s20.5229-4.1616 27.9305-11.5695c7.4079-7.4073 11.5695-17.4547 11.5695-27.9305-.0121-10.4723-4.177-20.5131-11.5822-27.9179-7.405-7.40505-17.4447-11.5700121-27.9178-11.58214414zm12.9559 40.68474414c-.0397.0237-19.1729 12.261-19.5129 12.4743-.2512.1813-.551.2832-.8613.292-.3791.0006-.7428-.1504-1.0106-.4182-.2684-.2684-.4188-.6321-.4188-1.0112v-25.0428c0-.3792.1504-.7429.4188-1.0112.2678-.2678.6315-.4188 1.0106-.4183.3103.0088.6101.1108.8613.2921.3401.2132 19.4734 12.4506 19.5129 12.4743.3951.2645.6321.7092.6321 1.1847 0 .4756-.237.9203-.6321 1.1848z" fill="#fff"/></svg>