<svg width="707" height="86" viewBox="0 0 707 86" fill="none" xmlns="http://www.w3.org/2000/svg">
<path d="M634.265 12.0878C540.167 5.64658 445.314 3.2959 348.369 3.0114C261.525 2.75654 142.926 -1.98734 64.9553 11.5276C25.67 18.337 -6.7642 35.69 4.13507 48.3936C11.5329 57.0162 30.6174 64.2567 59.3697 68.5635C129.079 79.0052 221.211 80.9473 298.927 82.6824C385.001 84.6042 480.174 85.3772 563.309 78.1442C598.038 75.1227 630.976 70.4981 661.159 64.9778C674.839 62.4756 696.194 58.8023 702.533 54.2765C714.745 45.5567 678.757 33.252 657.228 27.8876C626.067 20.1233 589.654 16.3481 548.621 15.1133" stroke="#3DD7AC" stroke-width="3" stroke-linecap="round" stroke-linejoin="round"/>
</svg>
