<svg width="71" height="51" viewBox="0 0 71 51" fill="none" xmlns="http://www.w3.org/2000/svg">
<g opacity="0.5">
<path d="M16.6219 0.00107186C7.83663 -0.0517851 0 7.2787 0 16.5045C0 25.6149 7.44553 33.008 16.6219 33.008C17.0923 33.008 17.5628 32.9729 18.024 32.9373C13.9063 37.9157 7.66766 41.0962 0.701656 41.0962V51C18.5659 51 33.0928 36.5149 33.0928 18.7074C34.043 8.64502 26.0831 0.0625571 16.6231 0.0011943L16.6219 0.00107186Z" fill="#00ECAA"/>
<path d="M38.5318 41.0953V50.9991C56.3961 50.9991 70.923 36.514 70.923 18.7065C71.8726 8.6441 63.9033 0.0537798 54.4517 0.000284028C45.666 -0.052573 37.8298 7.27855 37.8298 16.5037C37.8298 25.6141 45.2754 33.0072 54.4517 33.0072C54.9222 33.0072 55.3926 32.9722 55.8538 32.9365C51.728 37.9143 45.4893 41.0953 38.5318 41.0953Z" fill="#00ECAA"/>
</g>
</svg>
