<svg width="621" height="121" viewBox="0 0 621 121" fill="none" xmlns="http://www.w3.org/2000/svg">
<path d="M556.919 16.3936C474.331 7.20305 391.082 3.84903 305.997 3.44309C229.777 3.07945 125.686 -3.68925 57.2538 15.5942C22.7743 25.3101 -5.69205 50.0699 3.87388 68.1958C10.3667 80.4987 27.1165 90.8297 52.3515 96.9748C113.533 111.873 194.394 114.644 262.603 117.12C338.147 119.862 421.678 120.965 494.642 110.645C525.123 106.334 554.032 99.7351 580.522 91.8585C592.529 88.2884 611.272 83.0472 616.835 76.5897C627.553 64.1479 595.968 46.5912 577.072 38.9372C549.723 27.8588 517.764 22.4723 481.751 20.7105" stroke="#3DD7AC" stroke-width="3" stroke-linecap="round" stroke-linejoin="round"/>
</svg>
