<svg width="382" height="91" viewBox="0 0 382 91" fill="none" xmlns="http://www.w3.org/2000/svg">
<path d="M341.966 12.703C291.37 5.86894 240.368 3.37492 188.241 3.07307C141.546 2.80267 77.7754 -2.23047 35.8508 12.1085C14.7272 19.3332 -2.71247 37.7443 3.14802 51.2225C7.1258 60.3708 17.3874 68.0528 32.8475 72.6223C70.3296 83.7006 119.869 85.7612 161.656 87.6021C207.938 89.641 259.112 90.4611 303.813 82.7872C322.487 79.5814 340.198 74.6748 356.427 68.8179C363.783 66.1632 375.265 62.2659 378.673 57.4641C385.24 48.2125 365.889 35.1576 354.313 29.4661C337.558 21.2284 317.979 17.223 295.915 15.9129" stroke="#3DD7AC" stroke-width="3" stroke-linecap="round" stroke-linejoin="round"/>
</svg>
