<svg width="150" height="150" viewBox="0 0 150 150" fill="none" xmlns="http://www.w3.org/2000/svg">
<circle cx="75" cy="75" r="75" fill="white"/>
<path d="M75 83.7328C80.0454 83.7328 84.1356 79.6427 84.1356 74.5973C84.1356 69.5518 80.0454 65.4617 75 65.4617C69.9546 65.4617 65.8644 69.5518 65.8644 74.5973C65.8644 79.6427 69.9546 83.7328 75 83.7328Z" fill="#61DAFB"/>
<path d="M75 108.193C82.1709 115.167 89.2436 119.293 94.9411 119.293C96.8075 119.293 98.5756 118.9 100.049 118.016C105.157 115.069 107.024 107.701 105.255 97.1906C104.961 95.3242 104.568 93.4578 104.077 91.4931C106.041 90.9037 107.809 90.3143 109.578 89.725C119.499 85.8939 125 80.5894 125 74.7937C125 68.8998 119.499 63.5953 109.578 59.8625C107.809 59.1749 106.041 58.5855 104.077 58.0943C104.568 56.1297 104.961 54.2633 105.255 52.3969C106.925 41.6896 105.059 34.224 99.9509 31.277C98.4774 30.3929 96.7092 30 94.8428 30C89.2436 30 82.0727 34.1257 74.9018 41.1002C67.8291 34.1257 60.7564 30 55.0589 30C53.1925 30 51.4244 30.3929 49.9509 31.277C44.8428 34.224 42.9764 41.5914 44.7446 52.1022C45.0393 53.9686 45.4322 55.835 45.9234 57.7996C43.9587 58.389 42.1906 58.9784 40.4224 59.5678C30.501 63.3988 25 68.7033 25 74.499C25 80.3929 30.501 85.6974 40.4224 89.4303C42.1906 90.1179 43.9587 90.7073 45.9234 91.1984C45.4322 93.1631 45.0393 95.0295 44.7446 96.8959C43.0747 107.407 44.9411 114.872 49.9509 117.721C51.4244 118.605 53.1925 118.998 55.0589 118.998C60.7564 119.194 67.8291 115.069 75 108.193ZM69.499 94.9312C71.2672 95.0295 73.1336 95.0295 75 95.0295C76.8664 95.0295 78.7328 95.0295 80.501 94.9312C78.7328 97.2888 76.8664 99.4499 75 101.513C73.1336 99.4499 71.2672 97.2888 69.499 94.9312ZM57.3183 84.8134C58.3006 86.4833 59.1847 88.055 60.2652 89.6267C57.22 89.2338 54.3713 88.7426 51.6208 88.1532C52.5049 85.501 53.4872 82.7505 54.666 80C55.4519 81.5717 56.336 83.2417 57.3183 84.8134ZM51.6208 61.1395C54.3713 60.5501 57.22 60.0589 60.2652 59.666C59.2829 61.2377 58.3006 62.8094 57.3183 64.4794C56.336 66.1493 55.4519 67.721 54.666 69.391C53.389 66.5422 52.4067 63.7917 51.6208 61.1395ZM57.0236 74.5973C58.3006 71.945 59.6758 69.2927 61.2475 66.6405C62.721 64.0864 64.391 61.5324 66.0609 58.9784C69.0079 58.7819 71.9548 58.6837 75 58.6837C78.1434 58.6837 81.0904 58.7819 83.9391 58.9784C85.7073 61.5324 87.279 64.0864 88.7525 66.6405C90.3242 69.2927 91.6994 71.945 92.9764 74.5973C91.6994 77.2495 90.3242 79.9018 88.7525 82.554C87.279 85.1081 85.609 87.6621 83.9391 90.2161C80.9921 90.4126 78.0452 90.5108 75 90.5108C71.8566 90.5108 68.9096 90.4126 66.0609 90.2161C64.2927 87.6621 62.721 85.1081 61.2475 82.554C59.6758 79.9018 58.3006 77.2495 57.0236 74.5973ZM95.4322 69.2927L92.78 64.3811C91.7976 62.7112 90.9136 61.1395 89.833 59.5678C92.8782 59.9607 95.7269 60.4519 98.4774 61.0413C97.5933 63.7917 96.611 66.5422 95.4322 69.2927ZM95.4322 79.9018C96.611 82.6523 97.5933 85.4028 98.4774 88.055C95.7269 88.6444 92.8782 89.1356 89.833 89.5285C90.8153 87.9568 91.7976 86.3851 92.78 84.7151C93.664 83.2417 94.5481 81.5717 95.4322 79.9018ZM97.6915 113.988C96.9057 114.479 95.9234 114.676 94.8428 114.676C90.0295 114.676 84.0373 110.747 78.1434 104.853C80.9921 101.807 83.7426 98.3694 86.4931 94.5383C91.11 94.1454 95.5304 93.4578 99.6562 92.4754C100.147 94.2436 100.442 96.0118 100.737 97.78C102.112 106.13 101.031 112.122 97.6915 113.988ZM102.8 62.22C113.802 65.3635 120.383 70.1768 120.383 74.5973C120.383 78.4283 115.864 82.2593 107.908 85.3045C106.336 85.8939 104.568 86.4833 102.8 86.9745C101.523 82.947 99.9509 78.8212 97.9862 74.5973C99.9509 70.3733 101.621 66.2475 102.8 62.22ZM94.9411 34.5187C96.0216 34.5187 96.9057 34.7151 97.7898 35.2063C101.031 37.0727 102.21 42.9666 100.835 51.4145C100.54 53.0845 100.147 54.8527 99.7544 56.7191C95.6287 55.835 91.2083 55.1473 86.5914 54.6562C83.9391 50.8251 81.0904 47.387 78.2417 44.3418C84.1356 38.5462 90.1277 34.5187 94.9411 34.5187ZM80.501 54.2633C78.7328 54.165 76.8664 54.165 75 54.165C73.1336 54.165 71.2672 54.165 69.499 54.2633C71.2672 51.9057 73.1336 49.7446 75 47.6817C76.8664 49.7446 78.7328 52.0039 80.501 54.2633ZM52.3084 35.2063C53.0943 34.7151 54.0766 34.5187 55.1572 34.5187C59.9705 34.5187 65.9627 38.4479 71.8566 44.3418C69.0079 47.387 66.2574 50.8251 63.5069 54.6562C58.89 55.0491 54.4695 55.7367 50.3438 56.7191C49.8527 54.9509 49.558 53.1827 49.2633 51.4145C47.888 43.0648 48.9686 37.1709 52.3084 35.2063ZM47.2004 86.9745C36.1984 83.831 29.6169 79.0177 29.6169 74.5973C29.6169 70.7662 34.1356 66.9352 42.0923 63.89C43.664 63.3006 45.4322 62.7112 47.2004 62.22C48.4774 66.2475 50.0491 70.3733 52.0137 74.5973C50.0491 78.8212 48.3792 83.0452 47.2004 86.9745ZM49.2633 97.78C49.558 96.11 49.9509 94.3418 50.3438 92.4754C54.4695 93.3595 58.89 94.0472 63.5069 94.5383C66.1591 98.3694 69.0079 101.807 71.8566 104.853C65.9627 110.648 59.9705 114.676 55.1572 114.676C54.0766 114.676 53.1925 114.479 52.3084 113.988C48.9686 112.122 47.888 106.13 49.2633 97.78Z" fill="#61DAFB"/>
</svg>
