<svg width="150" height="150" viewBox="0 0 150 150" fill="none" xmlns="http://www.w3.org/2000/svg">
<circle cx="75" cy="75" r="75" fill="white"/>
<path d="M82.4283 39.1529V55.3076L110.142 71.4622V55.3076L82.4283 39.1529ZM27 55.3076V71.4622L40.8567 79.5378V63.3849L27 55.3076ZM68.57 63.3849L54.7133 71.4622V119.923L68.57 128V95.6924L82.4283 103.77V87.6151L68.57 79.5378V63.3849Z" fill="#E55B2D"/>
<path d="M82.4283 39.1529L40.8567 63.3849V79.5378L68.57 63.3849V79.5378L82.4283 71.4622L82.4283 39.1529ZM124 47.2303L110.142 55.3076V71.4622L124 63.3849V47.2303ZM96.285 79.5378L82.4283 87.6151V103.77L96.285 95.6924V79.5378ZM82.4283 103.77L68.57 95.6924V128L82.4283 119.923L82.4283 103.77Z" fill="#ED8E24"/>
<path d="M82.4283 23L27 55.3076L40.8567 63.3849L82.4283 39.1529L110.142 55.3076L124 47.2303L82.4283 23ZM82.4283 71.4622L68.57 79.5378L82.4283 87.6151L96.285 79.5378L82.4283 71.4622Z" fill="#F8BF3C"/>
</svg>
