<svg width="150" height="150" viewBox="0 0 150 150" fill="none" xmlns="http://www.w3.org/2000/svg">
<circle cx="75" cy="75" r="75" fill="white"/>
<path d="M108.797 33H41.2031C36.6727 33 33 36.6727 33 41.2031V108.797C33 113.327 36.6727 117 41.2031 117H108.797C113.327 117 117 113.327 117 108.797V41.2031C117 36.6727 113.327 33 108.797 33Z" fill="#3178C6"/>
<path fill-rule="evenodd" clip-rule="evenodd" d="M85.0078 99.7734V107.977C86.3367 108.666 87.9609 109.174 89.7656 109.519C91.5703 109.863 93.5391 110.027 95.5078 110.027C97.4766 110.027 99.2812 109.847 101.086 109.47C102.891 109.092 104.367 108.469 105.68 107.665C107.009 106.795 108.141 105.696 108.797 104.22C109.453 102.743 109.962 101.102 109.962 98.9695C109.962 97.4766 109.732 96.1805 109.289 95.032C108.846 93.8836 108.206 92.8992 107.32 92.0789C106.484 91.2094 105.516 90.4383 104.367 89.782C103.219 89.1258 101.906 88.4367 100.43 87.8133C99.3469 87.3703 98.4609 86.9437 97.4766 86.5172C96.6234 86.0906 95.8852 85.6641 95.3437 85.2375C94.7367 84.7945 94.2773 84.3352 93.9492 83.8594C93.6211 83.3672 93.457 82.8258 93.457 82.2187C93.457 81.6609 93.603 81.1523 93.9 80.693C94.197 80.2336 94.6055 79.8562 95.1305 79.5281C95.6555 79.2 96.3117 78.9539 97.0992 78.7734C97.8703 78.593 98.7234 78.5109 99.7242 78.5109C100.413 78.5109 101.135 78.5618 101.857 78.6652C102.612 78.7685 103.383 78.9277 104.154 79.1409C104.925 79.3542 105.68 79.6167 106.451 79.9448C107.173 80.273 107.845 80.6503 108.42 81.0769V73.3659C107.173 72.8902 105.795 72.5292 104.318 72.2995C102.841 72.0698 101.201 71.955 99.232 71.955C97.2633 71.955 95.4586 72.1683 93.6539 72.5784C91.8492 72.9886 90.3727 73.6448 89.0602 74.5472C87.7312 75.4331 86.7633 76.5159 85.943 77.9925C85.1719 79.3706 84.7945 80.9456 84.7945 82.9144C84.7945 85.3753 85.5 87.5081 86.9273 89.1487C88.3383 90.9534 90.5367 92.2659 93.3258 93.5784C94.4578 94.0378 95.4586 94.4972 96.443 94.9402C97.4273 95.3831 98.2477 95.8425 98.9039 96.3183C99.6094 96.7941 100.167 97.3191 100.545 97.8769C100.955 98.4347 101.168 99.0909 101.168 99.8456C101.168 100.371 101.04 100.863 100.791 101.322C100.541 101.782 100.151 102.175 99.6258 102.503C99.1008 102.832 98.4609 103.094 97.657 103.291C96.8859 103.471 96.0164 103.57 94.868 103.57C93.0633 103.57 91.2586 103.258 89.618 102.635C87.8133 102.011 86.1727 101.076 84.6961 99.8456L85.0078 99.7734ZM71.2266 79.5937H81.7266V72.8672H52.3594V79.5937H62.8594V109.617H71.2266V79.5937Z" fill="white"/>
</svg>
